<?xml version="1.0" encoding="UTF-8" standalone="no"?>
<!DOCTYPE svg PUBLIC "-//W3C//DTD SVG 1.1//EN" "http://www.w3.org/Graphics/SVG/1.1/DTD/svg11.dtd">
<svg width="100%" height="100%" viewBox="0 0 267 63" version="1.1" xmlns="http://www.w3.org/2000/svg" xmlns:xlink="http://www.w3.org/1999/xlink" xml:space="preserve" xmlns:serif="http://www.serif.com/" style="fill-rule:evenodd;clip-rule:evenodd;stroke-linejoin:round;stroke-miterlimit:2;">
    <g transform="matrix(1,0,0,1,51.8787,0)">
        <path d="M29.379,10.447C17.815,10.447 8.426,19.835 8.426,31.4C8.426,42.965 17.815,52.353 29.379,52.353C40.944,52.353 50.333,42.965 50.333,31.4C50.333,19.835 40.944,10.447 29.379,10.447ZM18.027,46.111C18.665,44.55 19.83,42.631 20.548,40.573C21.287,38.458 21.994,36.302 22.514,34.57C22.188,34.185 21.916,33.757 21.705,33.298C21.464,32.774 21.388,32.189 21.487,31.62L22.449,26.473C22.829,23.705 22.902,22.212 25.831,22.407C28.596,22.587 29.891,24.043 30.895,25.172C31.34,25.671 31.725,26.103 32.138,26.301C32.334,26.395 32.643,26.264 32.992,26.116C33.21,26.015 33.435,25.929 33.665,25.856L34.141,25.677L34.958,25.351L34.622,24.095C34.609,24.034 34.603,23.972 34.603,23.909C34.603,23.423 35.003,23.023 35.49,23.023C35.874,23.023 36.216,23.272 36.334,23.637L36.618,24.693L36.657,24.678C37.021,24.574 37.412,24.632 37.731,24.836C37.985,24.99 38.198,25.201 38.355,25.453C38.527,25.727 38.617,26.045 38.615,26.369C38.578,26.98 38.297,27.553 37.835,27.955C37.812,27.977 37.784,27.994 37.754,28.005L37.51,28.101L41.88,44.306C42.107,44.345 42.317,44.454 42.48,44.618C42.771,44.938 43.005,45.305 43.175,45.703L43.3,46.618L17.549,46.618C17.549,46.436 17.723,46.267 18.03,46.113L18.027,46.111ZM29.891,44.733C29.925,43.029 29.982,41.896 30.078,40.061L30.078,39.782C30.101,39.486 30.107,39.188 30.097,38.89C30.086,38.632 30.026,38.378 29.922,38.141L29.914,38.063C29.792,37.803 29.68,37.543 29.514,37.473C29.035,37.263 28.544,37.079 28.044,36.924C27.352,36.697 26.582,36.466 25.901,36.274C25.402,37.936 24.723,39.936 24.01,41.84C23.453,43.296 22.709,44.22 22.122,45.221C24.306,44.962 27.058,44.801 29.891,44.733ZM27.672,32.523C28.321,32.912 28.993,33.26 29.686,33.563C31.644,34.476 33.254,35.228 33.6,38.305C33.647,38.85 33.647,39.398 33.6,39.944L33.374,44.693C35.257,44.693 37.075,44.753 38.678,44.849C39.039,44.766 39.549,44.589 40.087,44.454L35.879,28.767L35.257,29.011L35.026,29.094C33.676,29.573 32.698,29.919 30.986,29.498C30.974,29.5 30.962,29.5 30.95,29.498C29.753,29.035 29.129,28.39 28.528,27.758L28.432,27.659L27.652,32.531L27.672,32.523ZM29.891,44.733L29.891,44.743L29.925,44.732L29.891,44.733ZM19.227,22.329L21.401,22.485C21.953,22.524 22.309,23.172 22.21,23.767L21.037,30.855C20.943,31.425 18.194,31.896 17.551,32.057C17.016,32.198 16.641,31.37 16.745,30.78L18.059,23.216C18.151,22.661 18.667,22.269 19.227,22.329ZM26.06,14.833C26.404,14.715 26.765,14.656 27.128,14.656C28.946,14.656 30.442,16.151 30.442,17.969C30.442,19.787 28.946,21.283 27.128,21.283C25.31,21.283 23.815,19.787 23.815,17.969C23.815,17.464 23.93,16.964 24.153,16.51C24.539,15.72 25.226,15.115 26.06,14.833Z" style="fill:rgb(253,195,14);"/>
    </g>
    <g transform="matrix(1,0,0,1,-0.0495899,0)">
        <path d="M29.379,10.447C17.815,10.447 8.426,19.835 8.426,31.4C8.426,42.965 17.815,52.353 29.379,52.353C40.944,52.353 50.333,42.965 50.333,31.4C50.333,19.835 40.944,10.447 29.379,10.447ZM18.027,46.111C18.665,44.55 19.83,42.631 20.548,40.573C21.287,38.458 21.994,36.302 22.514,34.57C22.188,34.185 21.916,33.757 21.705,33.298C21.464,32.774 21.388,32.189 21.487,31.62L22.449,26.473C22.829,23.705 22.902,22.212 25.831,22.407C28.596,22.587 29.891,24.043 30.895,25.172C31.34,25.671 31.725,26.103 32.138,26.301C32.334,26.395 32.643,26.264 32.992,26.116C33.21,26.015 33.435,25.929 33.665,25.856L34.141,25.677L34.958,25.351L34.622,24.095C34.609,24.034 34.603,23.972 34.603,23.909C34.603,23.423 35.003,23.023 35.49,23.023C35.874,23.023 36.216,23.272 36.334,23.637L36.618,24.693L36.657,24.678C37.021,24.574 37.412,24.632 37.731,24.836C37.985,24.99 38.198,25.201 38.355,25.453C38.527,25.727 38.617,26.045 38.615,26.369C38.578,26.98 38.297,27.553 37.835,27.955C37.812,27.977 37.784,27.994 37.754,28.005L37.51,28.101L41.88,44.306C42.107,44.345 42.317,44.454 42.48,44.618C42.771,44.938 43.005,45.305 43.175,45.703L43.3,46.618L17.549,46.618C17.549,46.436 17.723,46.267 18.03,46.113L18.027,46.111ZM29.891,44.733C29.925,43.029 29.982,41.896 30.078,40.061L30.078,39.782C30.101,39.486 30.107,39.188 30.097,38.89C30.086,38.632 30.026,38.378 29.922,38.141L29.914,38.063C29.792,37.803 29.68,37.543 29.514,37.473C29.035,37.263 28.544,37.079 28.044,36.924C27.352,36.697 26.582,36.466 25.901,36.274C25.402,37.936 24.723,39.936 24.01,41.84C23.453,43.296 22.709,44.22 22.122,45.221C24.306,44.962 27.058,44.801 29.891,44.733ZM27.672,32.523C28.321,32.912 28.993,33.26 29.686,33.563C31.644,34.476 33.254,35.228 33.6,38.305C33.647,38.85 33.647,39.398 33.6,39.944L33.374,44.693C35.257,44.693 37.075,44.753 38.678,44.849C39.039,44.766 39.549,44.589 40.087,44.454L35.879,28.767L35.257,29.011L35.026,29.094C33.676,29.573 32.698,29.919 30.986,29.498C30.974,29.5 30.962,29.5 30.95,29.498C29.753,29.035 29.129,28.39 28.528,27.758L28.432,27.659L27.652,32.531L27.672,32.523ZM29.891,44.733L29.891,44.743L29.925,44.732L29.891,44.733ZM19.227,22.329L21.401,22.485C21.953,22.524 22.309,23.172 22.21,23.767L21.037,30.855C20.943,31.425 18.194,31.896 17.551,32.057C17.016,32.198 16.641,31.37 16.745,30.78L18.059,23.216C18.151,22.661 18.667,22.269 19.227,22.329ZM26.06,14.833C26.404,14.715 26.765,14.656 27.128,14.656C28.946,14.656 30.442,16.151 30.442,17.969C30.442,19.787 28.946,21.283 27.128,21.283C25.31,21.283 23.815,19.787 23.815,17.969C23.815,17.464 23.93,16.964 24.153,16.51C24.539,15.72 25.226,15.115 26.06,14.833Z" style="fill:rgb(253,195,14);"/>
    </g>
    <g transform="matrix(1,0,0,1,103.835,0)">
        <path d="M29.379,10.447C17.815,10.447 8.426,19.835 8.426,31.4C8.426,42.965 17.815,52.353 29.379,52.353C40.944,52.353 50.333,42.965 50.333,31.4C50.333,19.835 40.944,10.447 29.379,10.447ZM18.027,46.111C18.665,44.55 19.83,42.631 20.548,40.573C21.287,38.458 21.994,36.302 22.514,34.57C22.188,34.185 21.916,33.757 21.705,33.298C21.464,32.774 21.388,32.189 21.487,31.62L22.449,26.473C22.829,23.705 22.902,22.212 25.831,22.407C28.596,22.587 29.891,24.043 30.895,25.172C31.34,25.671 31.725,26.103 32.138,26.301C32.334,26.395 32.643,26.264 32.992,26.116C33.21,26.015 33.435,25.929 33.665,25.856L34.141,25.677L34.958,25.351L34.622,24.095C34.609,24.034 34.603,23.972 34.603,23.909C34.603,23.423 35.003,23.023 35.49,23.023C35.874,23.023 36.216,23.272 36.334,23.637L36.618,24.693L36.657,24.678C37.021,24.574 37.412,24.632 37.731,24.836C37.985,24.99 38.198,25.201 38.355,25.453C38.527,25.727 38.617,26.045 38.615,26.369C38.578,26.98 38.297,27.553 37.835,27.955C37.812,27.977 37.784,27.994 37.754,28.005L37.51,28.101L41.88,44.306C42.107,44.345 42.317,44.454 42.48,44.618C42.771,44.938 43.005,45.305 43.175,45.703L43.3,46.618L17.549,46.618C17.549,46.436 17.723,46.267 18.03,46.113L18.027,46.111ZM29.891,44.733C29.925,43.029 29.982,41.896 30.078,40.061L30.078,39.782C30.101,39.486 30.107,39.188 30.097,38.89C30.086,38.632 30.026,38.378 29.922,38.141L29.914,38.063C29.792,37.803 29.68,37.543 29.514,37.473C29.035,37.263 28.544,37.079 28.044,36.924C27.352,36.697 26.582,36.466 25.901,36.274C25.402,37.936 24.723,39.936 24.01,41.84C23.453,43.296 22.709,44.22 22.122,45.221C24.306,44.962 27.058,44.801 29.891,44.733ZM27.672,32.523C28.321,32.912 28.993,33.26 29.686,33.563C31.644,34.476 33.254,35.228 33.6,38.305C33.647,38.85 33.647,39.398 33.6,39.944L33.374,44.693C35.257,44.693 37.075,44.753 38.678,44.849C39.039,44.766 39.549,44.589 40.087,44.454L35.879,28.767L35.257,29.011L35.026,29.094C33.676,29.573 32.698,29.919 30.986,29.498C30.974,29.5 30.962,29.5 30.95,29.498C29.753,29.035 29.129,28.39 28.528,27.758L28.432,27.659L27.652,32.531L27.672,32.523ZM29.891,44.733L29.891,44.743L29.925,44.732L29.891,44.733ZM19.227,22.329L21.401,22.485C21.953,22.524 22.309,23.172 22.21,23.767L21.037,30.855C20.943,31.425 18.194,31.896 17.551,32.057C17.016,32.198 16.641,31.37 16.745,30.78L18.059,23.216C18.151,22.661 18.667,22.269 19.227,22.329ZM26.06,14.833C26.404,14.715 26.765,14.656 27.128,14.656C28.946,14.656 30.442,16.151 30.442,17.969C30.442,19.787 28.946,21.283 27.128,21.283C25.31,21.283 23.815,19.787 23.815,17.969C23.815,17.464 23.93,16.964 24.153,16.51C24.539,15.72 25.226,15.115 26.06,14.833Z" style="fill:rgb(253,195,14);"/>
    </g>
    <g transform="matrix(1,0,0,1,155.544,0)">
        <path d="M29.379,10.447C17.815,10.447 8.426,19.835 8.426,31.4C8.426,42.965 17.815,52.353 29.379,52.353C40.944,52.353 50.333,42.965 50.333,31.4C50.333,19.835 40.944,10.447 29.379,10.447ZM18.027,46.111C18.665,44.55 19.83,42.631 20.548,40.573C21.287,38.458 21.994,36.302 22.514,34.57C22.188,34.185 21.916,33.757 21.705,33.298C21.464,32.774 21.388,32.189 21.487,31.62L22.449,26.473C22.829,23.705 22.902,22.212 25.831,22.407C28.596,22.587 29.891,24.043 30.895,25.172C31.34,25.671 31.725,26.103 32.138,26.301C32.334,26.395 32.643,26.264 32.992,26.116C33.21,26.015 33.435,25.929 33.665,25.856L34.141,25.677L34.958,25.351L34.622,24.095C34.609,24.034 34.603,23.972 34.603,23.909C34.603,23.423 35.003,23.023 35.49,23.023C35.874,23.023 36.216,23.272 36.334,23.637L36.618,24.693L36.657,24.678C37.021,24.574 37.412,24.632 37.731,24.836C37.985,24.99 38.198,25.201 38.355,25.453C38.527,25.727 38.617,26.045 38.615,26.369C38.578,26.98 38.297,27.553 37.835,27.955C37.812,27.977 37.784,27.994 37.754,28.005L37.51,28.101L41.88,44.306C42.107,44.345 42.317,44.454 42.48,44.618C42.771,44.938 43.005,45.305 43.175,45.703L43.3,46.618L17.549,46.618C17.549,46.436 17.723,46.267 18.03,46.113L18.027,46.111ZM29.891,44.733C29.925,43.029 29.982,41.896 30.078,40.061L30.078,39.782C30.101,39.486 30.107,39.188 30.097,38.89C30.086,38.632 30.026,38.378 29.922,38.141L29.914,38.063C29.792,37.803 29.68,37.543 29.514,37.473C29.035,37.263 28.544,37.079 28.044,36.924C27.352,36.697 26.582,36.466 25.901,36.274C25.402,37.936 24.723,39.936 24.01,41.84C23.453,43.296 22.709,44.22 22.122,45.221C24.306,44.962 27.058,44.801 29.891,44.733ZM27.672,32.523C28.321,32.912 28.993,33.26 29.686,33.563C31.644,34.476 33.254,35.228 33.6,38.305C33.647,38.85 33.647,39.398 33.6,39.944L33.374,44.693C35.257,44.693 37.075,44.753 38.678,44.849C39.039,44.766 39.549,44.589 40.087,44.454L35.879,28.767L35.257,29.011L35.026,29.094C33.676,29.573 32.698,29.919 30.986,29.498C30.974,29.5 30.962,29.5 30.95,29.498C29.753,29.035 29.129,28.39 28.528,27.758L28.432,27.659L27.652,32.531L27.672,32.523ZM29.891,44.733L29.891,44.743L29.925,44.732L29.891,44.733ZM19.227,22.329L21.401,22.485C21.953,22.524 22.309,23.172 22.21,23.767L21.037,30.855C20.943,31.425 18.194,31.896 17.551,32.057C17.016,32.198 16.641,31.37 16.745,30.78L18.059,23.216C18.151,22.661 18.667,22.269 19.227,22.329ZM26.06,14.833C26.404,14.715 26.765,14.656 27.128,14.656C28.946,14.656 30.442,16.151 30.442,17.969C30.442,19.787 28.946,21.283 27.128,21.283C25.31,21.283 23.815,19.787 23.815,17.969C23.815,17.464 23.93,16.964 24.153,16.51C24.539,15.72 25.226,15.115 26.06,14.833Z" style="fill:rgb(253,195,14);"/>
    </g>
    <g transform="matrix(1,0,0,1,207.266,0)">
        <path d="M29.379,10.447C17.815,10.447 8.426,19.835 8.426,31.4C8.426,42.965 17.815,52.353 29.379,52.353C40.944,52.353 50.333,42.965 50.333,31.4C50.333,19.835 40.944,10.447 29.379,10.447ZM18.027,46.111C18.665,44.55 19.83,42.631 20.548,40.573C21.287,38.458 21.994,36.302 22.514,34.57C22.188,34.185 21.916,33.757 21.705,33.298C21.464,32.774 21.388,32.189 21.487,31.62L22.449,26.473C22.829,23.705 22.902,22.212 25.831,22.407C28.596,22.587 29.891,24.043 30.895,25.172C31.34,25.671 31.725,26.103 32.138,26.301C32.334,26.395 32.643,26.264 32.992,26.116C33.21,26.015 33.435,25.929 33.665,25.856L34.141,25.677L34.958,25.351L34.622,24.095C34.609,24.034 34.603,23.972 34.603,23.909C34.603,23.423 35.003,23.023 35.49,23.023C35.874,23.023 36.216,23.272 36.334,23.637L36.618,24.693L36.657,24.678C37.021,24.574 37.412,24.632 37.731,24.836C37.985,24.99 38.198,25.201 38.355,25.453C38.527,25.727 38.617,26.045 38.615,26.369C38.578,26.98 38.297,27.553 37.835,27.955C37.812,27.977 37.784,27.994 37.754,28.005L37.51,28.101L41.88,44.306C42.107,44.345 42.317,44.454 42.48,44.618C42.771,44.938 43.005,45.305 43.175,45.703L43.3,46.618L17.549,46.618C17.549,46.436 17.723,46.267 18.03,46.113L18.027,46.111ZM29.891,44.733C29.925,43.029 29.982,41.896 30.078,40.061L30.078,39.782C30.101,39.486 30.107,39.188 30.097,38.89C30.086,38.632 30.026,38.378 29.922,38.141L29.914,38.063C29.792,37.803 29.68,37.543 29.514,37.473C29.035,37.263 28.544,37.079 28.044,36.924C27.352,36.697 26.582,36.466 25.901,36.274C25.402,37.936 24.723,39.936 24.01,41.84C23.453,43.296 22.709,44.22 22.122,45.221C24.306,44.962 27.058,44.801 29.891,44.733ZM27.672,32.523C28.321,32.912 28.993,33.26 29.686,33.563C31.644,34.476 33.254,35.228 33.6,38.305C33.647,38.85 33.647,39.398 33.6,39.944L33.374,44.693C35.257,44.693 37.075,44.753 38.678,44.849C39.039,44.766 39.549,44.589 40.087,44.454L35.879,28.767L35.257,29.011L35.026,29.094C33.676,29.573 32.698,29.919 30.986,29.498C30.974,29.5 30.962,29.5 30.95,29.498C29.753,29.035 29.129,28.39 28.528,27.758L28.432,27.659L27.652,32.531L27.672,32.523ZM29.891,44.733L29.891,44.743L29.925,44.732L29.891,44.733ZM19.227,22.329L21.401,22.485C21.953,22.524 22.309,23.172 22.21,23.767L21.037,30.855C20.943,31.425 18.194,31.896 17.551,32.057C17.016,32.198 16.641,31.37 16.745,30.78L18.059,23.216C18.151,22.661 18.667,22.269 19.227,22.329ZM26.06,14.833C26.404,14.715 26.765,14.656 27.128,14.656C28.946,14.656 30.442,16.151 30.442,17.969C30.442,19.787 28.946,21.283 27.128,21.283C25.31,21.283 23.815,19.787 23.815,17.969C23.815,17.464 23.93,16.964 24.153,16.51C24.539,15.72 25.226,15.115 26.06,14.833Z" style="fill:rgb(253,195,14);"/>
    </g>
</svg>
