<?xml version="1.0" encoding="utf-8"?>
<!-- Generator: Adobe Illustrator 24.2.1, SVG Export Plug-In . SVG Version: 6.00 Build 0)  -->
<svg version="1.1" id="Livello_1" xmlns="http://www.w3.org/2000/svg" xmlns:xlink="http://www.w3.org/1999/xlink" x="0px" y="0px"
	 viewBox="0 0 266.4 62.8" style="enable-background:new 0 0 266.4 62.8;" xml:space="preserve">
<style type="text/css">
	.st0{fill:#FDC30E;stroke:#FDC30E;stroke-miterlimit:10;}
	.st1{fill:none;stroke:#FDC30E;stroke-width:2;stroke-miterlimit:10;}
</style>
<polygon class="st0" points="29.2,10.6 35.8,23.9 50.4,26 39.8,36.3 42.3,50.9 29.2,44 16.1,50.9 18.6,36.3 8,26 22.7,23.9 "/>
<polygon class="st0" points="81.1,10.6 87.6,23.9 102.3,26 91.7,36.3 94.2,50.9 81.1,44 68,50.9 70.5,36.3 59.9,26 74.5,23.9 "/>
<polygon class="st0" points="133,10.6 139.5,23.9 154.2,26 143.6,36.3 146.1,50.9 133,44 119.9,50.9 122.4,36.3 111.8,26 
	126.4,23.9 "/>
<polygon class="st0" points="184.8,10.6 191.4,23.9 206,26 195.4,36.3 197.9,50.9 184.8,44 171.7,50.9 174.2,36.3 163.6,26 
	178.3,23.9 "/>
<polygon class="st0" points="236.7,10.6 243.2,23.9 257.9,26 247.3,36.3 249.8,50.9 236.7,44 223.6,50.9 226.1,36.3 215.5,26 
	230.1,23.9 "/>
</svg>
